<svg xmlns="http://www.w3.org/2000/svg" viewBox="0 0 250 300">
  <path fill="none" d="M-405-107H621v397H-405Z"/>
  <path fill="#a6a5a2" d="m5 220 27 21 27-21v50h-3v-44l-24 18-24-18v44H5zm68 0 26 21 28-21v50h-3v-44l-25 18-23-18v44h-3zm94 0 6 1 2 2 2 2 1 4 1 4-1 5-1 3-2 2-2 2-6 1h-24v24h-3v-26h26l5-2 2-1 2-2 1-2v-7l-1-3-2-2-2-1q-2-2-5-2h-26v-2zm24 0 27 21 27-21v50h-3v-44l-24 18-24-18v44h-3z"/>
  <path fill="#adaa5f" d="M131 25h-1a2167 2167 0 0 0-79 49 43 43 0 0 0-1 11 186 186 0 0 0 1 13v38a6 6 0 0 0 1 2l1 1a18 18 0 0 0 4 3 54 54 0 0 0 7 4 118 118 0 0 1 20 12 228923 228923 0 0 0 48 26 5048 5048 0 0 0 78-51 39 39 0 0 0 0-8 109 109 0 0 0-1-16V73a6 6 0 0 0-1-2 13 13 0 0 0-2-2 30 30 0 0 0-5-4 190 190 0 0 0-11-6 2670 2670 0 0 0-59-34zm0 11a7041 7041 0 0 1 23 14l-30 20-30 19-8-4a90777 90777 0 0 0-18-12l1-1 4-2 16-9a84931 84931 0 0 0 42-25zm33 21a7132 7132 0 0 1 30 17l-24 15-32 18-7 4a117 117 0 0 1-9-5l-5-3a5716 5716 0 0 1-13-8 279 279 0 0 1 25-16 17064 17064 0 0 1 12-7l2-2 6-3 9-6a24546 24546 0 0 0 6-4zM62 83a162905 162905 0 0 0 63 38 8469 8469 0 0 1 0 48v1l-18-11-21-13a138013 138013 0 0 0-20-11l-4-3v-4a5672 5672 0 0 0 0-39v-6zm137 1a7046 7046 0 0 1 0 47 6839 6839 0 0 1-51 31l-12 7a10226 10226 0 0 1 0-48 11483 11483 0 0 1 63-37z"/>
</svg>

